<svg width="28" height="34" viewBox="0 0 28 34" fill="none" xmlns="http://www.w3.org/2000/svg">
<path d="M23.1204 18.064C23.0818 13.7613 26.6346 11.6957 26.7953 11.5949C24.796 8.67005 21.6847 8.26935 20.5748 8.22221C17.9284 7.95436 15.4085 9.78001 14.0672 9.78001C12.7258 9.78001 10.6516 8.26079 8.45736 8.30364C5.5689 8.3465 2.90971 9.98143 1.42262 12.5656C-1.57513 17.7662 0.657647 25.4737 3.57611 29.695C5.00535 31.7585 6.70671 34.0834 8.94377 33.9977C11.0994 33.912 11.9137 32.6049 14.515 32.6049C17.1163 32.6049 17.8492 33.9977 20.1269 33.957C22.4433 33.912 23.9132 31.8485 25.3317 29.7786C26.9688 27.3829 27.6459 25.0645 27.6845 24.9423C27.6331 24.9209 23.1675 23.2088 23.1204 18.064Z" fill="white"/>
<path d="M18.8412 5.42976C20.0283 3.99195 20.8297 1.99271 20.6089 0C18.8989 0.0686432 16.8291 1.13998 15.6012 2.57779C14.502 3.84851 13.5378 5.8841 13.7991 7.83623C15.7062 7.98409 17.6539 6.86545 18.8412 5.42976Z" fill="white"/>
</svg>
