<svg width="754" height="400" viewBox="0 0 754 400" fill="none" xmlns="http://www.w3.org/2000/svg">
<path fill-rule="evenodd" clip-rule="evenodd" d="M314.208 400H584.613L646.152 307.692H415.265C396.252 336.176 372.13 361.264 342.535 382.277L342.398 382.374L342.26 382.471C333.18 388.841 323.825 394.678 314.208 400ZM446.678 246.154H569.228L630.767 153.846H467.876C467.014 163.715 465.621 173.821 463.723 184.139C459.745 205.775 454.089 226.495 446.678 246.154ZM465.535 92.3077H692.305L753.844 0H411.347C417.593 5.00256 423.418 10.4597 428.797 16.3911C448.252 37.7575 460.166 63.3894 465.535 92.3077Z" fill="white"/>
<path d="M0.000120182 398.77L123.178 0H238.068C310.203 0 361.263 16.5407 391.247 49.6221C419.571 80.7106 428.346 125.55 417.572 184.14C404.379 255.882 371.68 310.287 319.475 347.354C270.62 381.632 208.706 398.77 133.734 398.77H0.000120182ZM226.769 87.8849H198.807L129.835 310.885H160.837C199.742 310.885 232.005 300.722 257.627 280.395C285.973 258.473 303.738 227.983 310.921 188.923C317.224 154.645 312.299 128.539 296.145 110.603C282.315 95.4577 259.19 87.8849 226.769 87.8849Z" fill="white"/>
</svg>
