<svg width="166" height="24" viewBox="0 0 166 24" fill="none" xmlns="http://www.w3.org/2000/svg">
<path d="M18.6174 24H34.6394L38.2857 18.4615H24.6052C23.4787 20.1706 22.0494 21.6758 20.2958 22.9366L20.2877 22.9425L20.2795 22.9483C19.7416 23.3305 19.1872 23.6807 18.6174 24Z" fill="white"/>
<path d="M26.4665 14.7692H33.7279L37.3741 9.23077H27.7225C27.6715 9.82287 27.5889 10.4293 27.4765 11.0484C27.2407 12.3465 26.9056 13.5897 26.4665 14.7692Z" fill="white"/>
<path d="M27.5838 5.53846H41.0204L44.6667 0H24.3731C24.7432 0.300154 25.0883 0.62758 25.4071 0.983467C26.5598 2.26545 27.2657 3.80336 27.5838 5.53846Z" fill="white"/>
<path d="M0 23.9262L7.29854 0H14.106C18.3801 0 21.4055 0.992441 23.1821 2.97732C24.8604 4.84264 25.3803 7.53299 24.7419 11.0484C23.9602 15.3529 22.0227 18.6172 18.9295 20.8413C16.0347 22.8979 12.3662 23.9262 7.92398 23.9262H0ZM13.4365 5.27309H11.7797L7.69299 18.6531H9.52991C11.8351 18.6531 13.7467 18.0433 15.2649 16.8237C16.9444 15.5084 17.997 13.679 18.4226 11.3354C18.7961 9.27873 18.5043 7.71235 17.5471 6.6362C16.7277 5.72746 15.3575 5.27309 13.4365 5.27309Z" fill="white"/>
<path d="M55.4205 19C59.8523 19 62.5369 16.2585 62.5369 11.7131C62.5369 7.18182 59.8523 4.45455 55.4631 4.45455H50.2642V19H55.4205ZM53.3395 16.3651V7.08949H55.2997C58.027 7.08949 59.4688 8.48153 59.4688 11.7131C59.4688 14.9588 58.027 16.3651 55.2926 16.3651H53.3395ZM64.7582 19H67.7837V12.8281C67.7837 11.4858 68.7638 10.5625 70.0991 10.5625C70.5181 10.5625 71.0934 10.6335 71.3775 10.7259V8.04119C71.1076 7.97727 70.7312 7.93466 70.4258 7.93466C69.2042 7.93466 68.2028 8.64489 67.805 9.99432H67.6914V8.09091H64.7582V19ZM72.9418 19H75.9673V8.09091H72.9418V19ZM74.4616 6.68466C75.3636 6.68466 76.1023 5.99574 76.1023 5.15057C76.1023 4.3125 75.3636 3.62358 74.4616 3.62358C73.5668 3.62358 72.8281 4.3125 72.8281 5.15057C72.8281 5.99574 73.5668 6.68466 74.4616 6.68466ZM88.5614 8.09091H85.3583L83.0998 15.8963H82.9862L80.7205 8.09091H77.5245L81.3384 19H84.7475L88.5614 8.09091ZM94.7102 19.2131C97.4091 19.2131 99.2273 17.8991 99.6534 15.875L96.8551 15.6903C96.5497 16.5213 95.7685 16.9545 94.7599 16.9545C93.2472 16.9545 92.2884 15.9531 92.2884 14.3267V14.3196H99.7173V13.4886C99.7173 9.78125 97.473 7.94886 94.5895 7.94886C91.3793 7.94886 89.2983 10.2287 89.2983 13.5952C89.2983 17.054 91.3509 19.2131 94.7102 19.2131ZM92.2884 12.4446C92.3523 11.2017 93.2969 10.2074 94.6392 10.2074C95.9531 10.2074 96.8622 11.1449 96.8693 12.4446H92.2884ZM101.749 19H111.578V16.4645H104.824V12.9915H111.045V10.456H104.824V6.99006H111.55V4.45455H101.749V19ZM116.466 8.09091H113.341L116.466 13.5455L113.228 19H116.353L118.469 15.2287L120.621 19H123.711L120.465 13.5455L123.625 8.09091H120.522L118.469 11.9048L116.466 8.09091ZM125.422 23.0909H128.448V17.2528H128.54C128.959 18.1619 129.875 19.1776 131.637 19.1776C134.123 19.1776 136.061 17.2102 136.061 13.5597C136.061 9.80966 134.037 7.94886 131.644 7.94886C129.819 7.94886 128.945 9.03551 128.54 9.9233H128.405V8.09091H125.422V23.0909ZM128.384 13.5455C128.384 11.5994 129.208 10.3565 130.678 10.3565C132.176 10.3565 132.972 11.6562 132.972 13.5455C132.972 15.4489 132.162 16.7699 130.678 16.7699C129.222 16.7699 128.384 15.4915 128.384 13.5455ZM143.05 19.2131C145.749 19.2131 147.567 17.8991 147.993 15.875L145.195 15.6903C144.89 16.5213 144.108 16.9545 143.1 16.9545C141.587 16.9545 140.628 15.9531 140.628 14.3267V14.3196H148.057V13.4886C148.057 9.78125 145.813 7.94886 142.929 7.94886C139.719 7.94886 137.638 10.2287 137.638 13.5952C137.638 17.054 139.691 19.2131 143.05 19.2131ZM140.628 12.4446C140.692 11.2017 141.637 10.2074 142.979 10.2074C144.293 10.2074 145.202 11.1449 145.209 12.4446H140.628ZM150.032 19H153.057V12.8281C153.057 11.4858 154.037 10.5625 155.373 10.5625C155.792 10.5625 156.367 10.6335 156.651 10.7259V8.04119C156.381 7.97727 156.005 7.93466 155.699 7.93466C154.478 7.93466 153.476 8.64489 153.078 9.99432H152.965V8.09091H150.032V19ZM164.565 8.09091H162.512V5.47727H159.487V8.09091H157.995V10.3636H159.487V16.0455C159.472 18.1832 160.928 19.2415 163.123 19.1491C163.904 19.1207 164.458 18.9645 164.763 18.8651L164.288 16.6136C164.138 16.642 163.819 16.7131 163.535 16.7131C162.931 16.7131 162.512 16.4858 162.512 15.6477V10.3636H164.565V8.09091Z" fill="white"/>
</svg>
