<svg width="67" height="14" viewBox="0 0 67 14" fill="none" xmlns="http://www.w3.org/2000/svg">
<path d="M7.092 7.36C7.092 6.304 6.552 5.572 5.472 5.152V5.14C6.42 4.684 6.888 3.964 6.888 2.992C6.888 2.284 6.6 1.684 6.036 1.204C5.472 0.711999 4.692 0.472 3.72 0.472C2.1 0.472 0.984 1.348 0.552 2.596L1.836 3.184C2.22 2.272 2.844 1.816 3.696 1.816C4.788 1.816 5.388 2.368 5.388 3.148C5.388 3.532 5.232 3.868 4.908 4.144C4.596 4.42 4.188 4.552 3.696 4.552H2.532V5.884H3.78C4.308 5.884 4.74 6.028 5.064 6.316C5.4 6.592 5.568 6.94 5.568 7.336C5.568 7.72 5.4 8.056 5.052 8.344C4.704 8.62 4.272 8.764 3.756 8.764C2.796 8.764 2.112 8.296 1.692 7.36L0.42 7.984C0.984 9.4 2.088 10.108 3.732 10.108C4.704 10.108 5.496 9.844 6.132 9.316C6.768 8.788 7.092 8.14 7.092 7.36ZM11.7427 5.656C11.7427 6.016 11.5387 6.196 11.1427 6.196H10.3507C9.22266 6.196 7.68666 6.664 7.68666 8.152V8.224C7.68666 8.776 7.89066 9.232 8.29866 9.58C8.70666 9.928 9.22266 10.108 9.84666 10.108C10.7107 10.108 11.3347 9.784 11.7307 9.124V10H13.1347V5.92C13.1347 5.476 13.0627 5.092 12.9187 4.768C12.5227 3.892 11.7187 3.46 10.5187 3.46C9.21066 3.46 8.29866 4 7.79466 5.092L8.88666 5.716C9.21066 5.032 9.75066 4.696 10.4827 4.696C11.2867 4.696 11.7427 5.128 11.7427 5.656ZM11.7307 7.408C11.7307 8.368 11.1067 8.968 10.1347 8.968C9.52266 8.968 9.11466 8.62 9.11466 8.092C9.11466 7.816 9.24666 7.6 9.49866 7.444C9.76266 7.288 10.0507 7.204 10.3507 7.204H11.7307V7.408ZM18.885 3.592H14.385V10H15.813V4.876H18.885V3.592ZM26.1643 6.772C26.1643 5.92 25.8763 5.152 25.2883 4.48C24.7123 3.808 23.9563 3.472 23.0203 3.472C22.6603 3.472 22.2763 3.556 21.8563 3.736C21.4363 3.916 21.1123 4.192 20.8723 4.588V3.592H19.4803V13.156H20.9083V9.064C21.1363 9.412 21.4483 9.664 21.8683 9.844C22.2883 10.012 22.6603 10.096 22.9843 10.096C23.9083 10.096 24.6643 9.772 25.2643 9.112C25.8643 8.452 26.1643 7.672 26.1643 6.772ZM21.4123 5.344C21.7723 4.948 22.2403 4.756 22.8043 4.756C23.3683 4.756 23.8363 4.948 24.1843 5.344C24.5443 5.74 24.7243 6.22 24.7243 6.784C24.7243 7.348 24.5443 7.828 24.1843 8.224C23.8363 8.608 23.3683 8.8 22.8043 8.8C22.2403 8.8 21.7723 8.608 21.4123 8.224C21.0643 7.828 20.8843 7.348 20.8843 6.784C20.8843 6.22 21.0643 5.74 21.4123 5.344ZM27.9123 3.592H26.2803L29.1363 9.28L27.3723 13.156H28.8963L33.3003 3.592H31.7523L29.9043 7.792L27.9123 3.592ZM35.9199 10.132C37.4199 10.132 38.4159 9.388 38.4159 8.176C38.4159 7.456 38.0559 6.952 37.3239 6.664V6.652C37.9479 6.4 38.2959 5.884 38.2959 5.296C38.2959 4.204 37.3719 3.46 35.9199 3.46C34.7199 3.46 33.7359 4.048 33.2439 5.116L34.3599 5.716C34.6839 5.032 35.1759 4.696 35.8599 4.696C36.4839 4.696 36.8559 5.02 36.8559 5.44C36.8559 5.92 36.5079 6.22 35.8839 6.22H35.0679V7.3H35.8959C36.6039 7.3 36.9639 7.564 36.9639 8.092C36.9639 8.536 36.5199 8.884 35.8839 8.884C35.1519 8.884 34.6359 8.548 34.3359 7.888L33.1959 8.5C33.6759 9.568 34.6719 10.132 35.9199 10.132ZM39.3483 10H40.7283L43.7643 5.728V10H45.1563V3.592H43.7763L40.7403 7.876V3.592H39.3483V10ZM45.7629 4.876H47.8389V10H49.2789V4.876H51.3669V3.592H45.7629V4.876ZM57.7161 7.216C57.7281 7.108 57.7401 6.964 57.7401 6.772C57.7401 5.776 57.4641 4.984 56.9121 4.372C56.3601 3.76 55.5921 3.46 54.6201 3.46C53.6961 3.46 52.9281 3.784 52.3161 4.432C51.7041 5.08 51.3921 5.86 51.3921 6.784C51.3921 7.732 51.7161 8.536 52.3521 9.172C53.0001 9.808 53.8041 10.12 54.7521 10.12C55.9041 10.12 56.9481 9.568 57.4881 8.572L56.4561 7.888C56.1081 8.548 55.5321 8.884 54.7281 8.884C54.2361 8.884 53.8041 8.728 53.4321 8.416C53.0601 8.092 52.8681 7.696 52.8561 7.216H57.7161ZM54.6201 4.684C55.5321 4.684 56.2401 5.236 56.2881 6.136H52.9281C53.0601 5.26 53.7441 4.684 54.6201 4.684ZM61.1709 10H64.6269C65.2749 10 65.8269 9.856 66.2829 9.58C66.7389 9.292 66.9669 8.848 66.9669 8.26C66.9669 7.84 66.8349 7.492 66.5829 7.192C66.3309 6.892 66.0189 6.712 65.6709 6.652C66.3549 6.352 66.7029 5.86 66.7029 5.2C66.7029 4.18 65.8149 3.592 64.5669 3.592H61.1709V10ZM62.5749 4.744H64.2909C65.5029 4.648 65.5749 6.244 64.2549 6.22H62.5749V4.744ZM62.5749 7.252H64.3629C65.0229 7.252 65.5029 7.516 65.5029 8.008C65.5029 8.536 65.0829 8.824 64.4229 8.824H62.5749V7.252Z" fill="white"/>
</svg>
