<svg width="30" height="34" viewBox="0 0 30 34" fill="none" xmlns="http://www.w3.org/2000/svg">
<path d="M1.57173 0L17.5888 15.9017L21.9806 11.5099L2.56577 0.300283C2.26435 0.119521 1.92281 0.0163465 1.57173 0ZM0.230809 0.739613C0.0772199 1.01513 -0.00228798 1.32577 5.01169e-05 1.6412V32.543C5.01169e-05 32.7915 0.0518232 33.0141 0.139097 33.2131L16.526 16.9416L0.230809 0.739613ZM23.3215 12.2731L18.6294 16.9416L23.3208 21.5878L29.0528 18.3054C29.8678 17.8343 29.9832 17.2367 29.9773 16.9186C29.9692 16.3935 29.6371 15.9017 29.0765 15.6014C28.5883 15.3381 24.962 13.2265 23.3208 12.2731H23.3215ZM17.5895 17.9815L1.43194 34C1.72386 33.9907 2.00925 33.9113 2.264 33.7685L15.6932 26.0026L22.0028 22.374L17.5895 17.9815Z" fill="#121213"/>
</svg>
