<svg width="770" height="573" viewBox="0 0 770 573" fill="none" xmlns="http://www.w3.org/2000/svg">
<path opacity="0.3" d="M368.362 460.552C281.078 466.688 237.092 489.694 224.798 498.897C221.728 500.97 114.806 543.914 107.122 545.448C99.4387 546.982 92.6467 545.448 84.9645 545.448C77.2823 545.448 68.0541 554.651 63.4453 559.253C58.8364 563.854 56.4147 573.057 56.4147 577.659C56.4147 582.26 61.9153 589.394 58.8407 593.996C55.7661 598.597 50.2646 593.996 44.1166 592.462C37.9686 590.928 38.8527 596.065 17.339 602.2C-4.17466 608.336 5.70047 597.063 10.3105 593.996C13.9986 591.542 25.1652 584.793 30.2876 581.725C32.3365 578.657 36.7417 571.602 37.971 567.92C39.5077 563.319 44.1178 550.05 50.2646 545.448C55.182 541.767 61.5336 538.777 61.0214 535.709C53.6453 525.893 54.8746 519.348 56.4113 517.303C60.5092 515.258 70.5489 509.941 77.925 505.033C85.3012 500.124 95.3409 498.897 99.4387 498.897C109.171 501.965 130.173 507.487 136.319 505.033C142.466 502.578 152.199 501.965 156.296 501.965C162.955 506.055 177.152 499.433 177.161 487.162C177.166 479.493 170.127 478.957 170.127 478.957C170.127 478.957 155.954 477.73 151.037 478.957C144.89 480.491 134.783 478.957 130.173 474.356C125.563 469.754 116.342 466.686 107.122 465.153C99.7461 463.925 94.8287 454.416 93.292 449.814C91.7553 443.679 87.1452 430.794 80.9984 428.34C73.315 425.272 73.315 422.205 68.7049 411.468C65.0168 402.878 54.8746 388.46 50.2646 382.325C47.1923 372.099 40.7404 348.887 39.511 337.843C37.9743 324.039 39.511 320.971 56.4147 302.565C69.9376 287.84 75.3662 271.888 76.3902 265.752C76.3902 246.835 75.1609 204.705 70.2434 187.526C65.326 170.347 72.2924 166.052 76.3902 166.052C110.197 164.518 134.785 153.782 144.005 149.18C153.225 144.578 171.665 129.24 176.275 121.571C179.963 115.435 194.203 105.721 200.862 101.631C204.448 101.119 217.151 97.336 239.28 86.2923C261.408 75.2486 262.842 62.262 260.793 57.1492L250.036 32.6076C249.012 29.0286 249.114 21.8707 257.72 21.8707C266.325 21.8707 273.599 17.7805 276.16 15.7354C281.795 9.59998 295.83 -0.830186 306.894 6.53228C320.724 15.7354 314.578 21.8708 319.188 34.1415C322.876 43.9582 330.969 40.2772 334.555 37.2096C338.14 34.6532 348.692 31.9945 362.215 41.8111C379.119 54.0819 385.265 51.0142 389.876 44.8788C393.564 39.9705 402.681 36.6983 406.779 35.6757C411.389 36.187 427.371 37.8231 454.417 40.2773C481.462 42.7314 485.151 46.4127 483.614 47.9465C484.126 51.0142 482.692 60.5241 472.857 74.0219C460.563 90.8942 471.32 106.233 474.394 118.503C476.852 128.32 495.907 139.977 505.128 144.579C517.933 148.158 546.311 160.531 557.375 181.391C568.439 202.252 586.572 207.467 594.256 207.467C605.525 206.955 632.98 203.4 640.357 203.4C649.577 203.4 656.614 210.535 658.151 215.136C659.688 219.737 646.503 222.805 637.283 222.805C628.063 222.805 617.306 230.474 618.843 235.076C620.38 239.677 630.49 241.211 647.394 241.211C664.298 241.211 661.87 235.076 677.237 235.076C692.604 235.076 689.531 233.542 701.824 218.204C711.659 205.933 726.411 211.046 732.558 215.136L755.609 241.211C761.243 248.369 770.668 264.833 763.292 273.422C755.916 282.012 755.096 293.362 755.609 297.964C757.145 302.054 760.833 311.155 763.292 314.836C766.365 319.438 763.292 325.573 760.219 328.641C757.76 331.095 752.023 332.731 749.462 333.242C747.413 332.22 740.549 329.255 729.485 325.573C718.421 321.892 708.483 332.22 704.898 337.844C699.263 347.047 687.379 366.374 684.921 370.055C681.847 374.657 669.554 370.055 661.87 370.055C654.187 370.055 643.43 376.191 640.357 382.326C637.283 388.461 606.549 400.732 586.572 400.732C570.591 400.732 556.351 391.529 551.228 386.928C550.204 382.837 544.16 374.964 528.178 376.191C512.196 377.418 514.348 389.995 517.421 396.131L534.325 414.537C536.886 418.627 540.471 428.648 534.325 436.011C528.178 443.373 507.176 449.304 497.444 451.349C490.785 451.86 455.646 454.417 368.362 460.552Z" stroke="white" stroke-width="8"/>
</svg>
