<svg width="11" height="14" viewBox="0 0 11 14" fill="none" xmlns="http://www.w3.org/2000/svg">
<path d="M10.6667 14H9.33333V12.6667C9.33333 12.1362 9.12262 11.6275 8.74755 11.2525C8.37247 10.8774 7.86377 10.6667 7.33333 10.6667H3.33333C2.8029 10.6667 2.29419 10.8774 1.91912 11.2525C1.54405 11.6275 1.33333 12.1362 1.33333 12.6667V14H0V12.6667C0 11.7826 0.351189 10.9348 0.976311 10.3096C1.60143 9.68452 2.44928 9.33333 3.33333 9.33333H7.33333C8.21739 9.33333 9.06524 9.68452 9.69036 10.3096C10.3155 10.9348 10.6667 11.7826 10.6667 12.6667V14ZM5.33333 8C4.80805 8 4.2879 7.89654 3.8026 7.69552C3.3173 7.4945 2.87634 7.19986 2.50491 6.82843C2.13347 6.45699 1.83883 6.01604 1.63782 5.53073C1.4368 5.04543 1.33333 4.52529 1.33333 4C1.33333 3.47471 1.4368 2.95457 1.63782 2.46927C1.83883 1.98396 2.13347 1.54301 2.50491 1.17157C2.87634 0.800139 3.3173 0.505501 3.8026 0.304482C4.2879 0.103463 4.80805 -7.82739e-09 5.33333 0C6.3942 1.58081e-08 7.41162 0.421427 8.16176 1.17157C8.91191 1.92172 9.33333 2.93913 9.33333 4C9.33333 5.06087 8.91191 6.07828 8.16176 6.82843C7.41162 7.57857 6.3942 8 5.33333 8ZM5.33333 6.66667C6.04058 6.66667 6.71885 6.38572 7.21895 5.88562C7.71905 5.38552 8 4.70724 8 4C8 3.29276 7.71905 2.61448 7.21895 2.11438C6.71885 1.61428 6.04058 1.33333 5.33333 1.33333C4.62609 1.33333 3.94781 1.61428 3.44772 2.11438C2.94762 2.61448 2.66667 3.29276 2.66667 4C2.66667 4.70724 2.94762 5.38552 3.44772 5.88562C3.94781 6.38572 4.62609 6.66667 5.33333 6.66667Z" fill="black"/>
</svg>
