<svg width="138" height="48" viewBox="0 0 138 48" fill="none" xmlns="http://www.w3.org/2000/svg">
<rect width="137.143" height="48" rx="4" fill="#121213"/>
<path d="M48.0782 14.8801C48.0782 13.9749 47.6154 13.3475 46.6897 12.9875V12.9772C47.5022 12.5864 47.9034 11.9692 47.9034 11.1361C47.9034 10.5292 47.6565 10.0149 47.1731 9.6035C46.6897 9.18179 46.0211 8.97607 45.1879 8.97607C43.7994 8.97607 42.8428 9.72693 42.4725 10.7966L43.5731 11.3006C43.9022 10.5189 44.4371 10.1281 45.1674 10.1281C46.1034 10.1281 46.6177 10.6012 46.6177 11.2698C46.6177 11.5989 46.4839 11.8869 46.2062 12.1235C45.9388 12.3601 45.5891 12.4732 45.1674 12.4732H44.1697V13.6149H45.2394C45.6919 13.6149 46.0622 13.7384 46.3399 13.9852C46.6279 14.2218 46.7719 14.5201 46.7719 14.8595C46.7719 15.1886 46.6279 15.4766 46.3297 15.7235C46.0314 15.9601 45.6611 16.0835 45.2188 16.0835C44.3959 16.0835 43.8097 15.6824 43.4497 14.8801L42.3594 15.4149C42.8428 16.6286 43.7891 17.2355 45.1982 17.2355C46.0314 17.2355 46.7102 17.0092 47.2554 16.5566C47.8005 16.1041 48.0782 15.5486 48.0782 14.8801Z" fill="white"/>
<path d="M52.0645 13.4195C52.0645 13.7281 51.8897 13.8824 51.5502 13.8824H50.8714C49.9045 13.8824 48.5879 14.2835 48.5879 15.5589V15.6206C48.5879 16.0938 48.7628 16.4846 49.1125 16.7829C49.4622 17.0812 49.9045 17.2355 50.4394 17.2355C51.1799 17.2355 51.7148 16.9578 52.0542 16.3921V17.1429H53.2577V13.6458C53.2577 13.2652 53.1959 12.9361 53.0725 12.6584C52.7331 11.9075 52.0439 11.5372 51.0154 11.5372C49.8942 11.5372 49.1125 12.0001 48.6805 12.9361L49.6165 13.4709C49.8942 12.8846 50.3571 12.5966 50.9845 12.5966C51.6737 12.5966 52.0645 12.9669 52.0645 13.4195ZM52.0542 14.9212C52.0542 15.7441 51.5194 16.2584 50.6862 16.2584C50.1617 16.2584 49.8119 15.9601 49.8119 15.5075C49.8119 15.2709 49.9251 15.0858 50.1411 14.9521C50.3674 14.8184 50.6142 14.7464 50.8714 14.7464H52.0542V14.9212Z" fill="white"/>
<path d="M58.1865 11.6504H54.3294V17.1429H55.5534V12.7509H58.1865V11.6504Z" fill="white"/>
<path d="M64.4259 14.3761C64.4259 13.6458 64.1791 12.9875 63.6751 12.4115C63.1814 11.8355 62.5334 11.5475 61.7311 11.5475C61.4225 11.5475 61.0934 11.6195 60.7334 11.7738C60.3734 11.9281 60.0956 12.1646 59.8899 12.5041V11.6504H58.6968V19.8481H59.9208V16.3406C60.1162 16.6389 60.3836 16.8549 60.7436 17.0092C61.1036 17.1532 61.4225 17.2252 61.7002 17.2252C62.4922 17.2252 63.1402 16.9475 63.6545 16.3818C64.1688 15.8161 64.4259 15.1475 64.4259 14.3761ZM60.3528 13.1521C60.6614 12.8126 61.0625 12.6481 61.5459 12.6481C62.0294 12.6481 62.4305 12.8126 62.7288 13.1521C63.0374 13.4915 63.1916 13.9029 63.1916 14.3864C63.1916 14.8698 63.0374 15.2812 62.7288 15.6206C62.4305 15.9498 62.0294 16.1144 61.5459 16.1144C61.0625 16.1144 60.6614 15.9498 60.3528 15.6206C60.0545 15.2812 59.9002 14.8698 59.9002 14.3864C59.9002 13.9029 60.0545 13.4915 60.3528 13.1521Z" fill="white"/>
<path d="M65.9242 11.6504H64.5253L66.9733 16.5258L65.4613 19.8481H66.7676L70.5425 11.6504H69.2156L67.6316 15.2504L65.9242 11.6504Z" fill="white"/>
<path d="M72.7879 17.2561C74.0736 17.2561 74.9273 16.6184 74.9273 15.5795C74.9273 14.9624 74.6188 14.5304 73.9913 14.2835V14.2732C74.5262 14.0572 74.8245 13.6149 74.8245 13.1109C74.8245 12.1749 74.0325 11.5372 72.7879 11.5372C71.7593 11.5372 70.9159 12.0412 70.4942 12.9566L71.4508 13.4709C71.7285 12.8846 72.1502 12.5966 72.7365 12.5966C73.2713 12.5966 73.5902 12.8744 73.5902 13.2344C73.5902 13.6458 73.2919 13.9029 72.757 13.9029H72.0576V14.8286H72.7673C73.3742 14.8286 73.6828 15.0549 73.6828 15.5075C73.6828 15.8881 73.3022 16.1864 72.757 16.1864C72.1296 16.1864 71.6873 15.8984 71.4302 15.3326L70.453 15.8572C70.8645 16.7726 71.7182 17.2561 72.7879 17.2561Z" fill="white"/>
<path d="M75.7265 17.1429H76.9093L79.5116 13.4812V17.1429H80.7048V11.6504H79.5219L76.9196 15.3224V11.6504H75.7265V17.1429Z" fill="white"/>
<path d="M81.2248 12.7509H83.0042V17.1429H84.2385V12.7509H86.0282V11.6504H81.2248V12.7509Z" fill="white"/>
<path d="M91.4703 14.7566C91.4806 14.6641 91.4909 14.5406 91.4909 14.3761C91.4909 13.5224 91.2543 12.8435 90.7811 12.3189C90.308 11.7944 89.6497 11.5372 88.8166 11.5372C88.0246 11.5372 87.3663 11.8149 86.8417 12.3704C86.3171 12.9258 86.0497 13.5944 86.0497 14.3864C86.0497 15.1989 86.3274 15.8881 86.8726 16.4332C87.428 16.9784 88.1171 17.2458 88.9297 17.2458C89.9171 17.2458 90.812 16.7726 91.2749 15.9189L90.3903 15.3326C90.092 15.8984 89.5983 16.1864 88.9091 16.1864C88.4874 16.1864 88.1171 16.0526 87.7983 15.7852C87.4794 15.5075 87.3149 15.1681 87.3046 14.7566H91.4703ZM88.8166 12.5864C89.5983 12.5864 90.2051 13.0595 90.2463 13.8309H87.3663C87.4794 13.0801 88.0657 12.5864 88.8166 12.5864Z" fill="white"/>
<path d="M94.4316 17.1429H97.3939C97.9493 17.1429 98.4225 17.0195 98.8133 16.7829C99.2042 16.5361 99.3996 16.1555 99.3996 15.6515C99.3996 15.2915 99.2865 14.9932 99.0705 14.7361C98.8545 14.4789 98.587 14.3246 98.2887 14.2732C98.875 14.0161 99.1733 13.5944 99.1733 13.0286C99.1733 12.1544 98.4122 11.6504 97.3425 11.6504H94.4316V17.1429ZM95.635 12.6378H97.1059C98.1447 12.5555 98.2065 13.9235 97.075 13.9029H95.635V12.6378ZM95.635 14.7875H97.1676C97.7333 14.7875 98.1448 15.0138 98.1448 15.4355C98.1448 15.8881 97.7848 16.1349 97.219 16.1349H95.635V14.7875Z" fill="white"/>
<path d="M50.057 35.1429H52.7439L48.5419 23.0642H45.5703L41.3767 35.1429H43.9716L44.8923 32.2132H49.1362L50.057 35.1429ZM46.985 25.3745H47.0436L48.5921 30.3215H45.4364L46.985 25.3745Z" fill="white"/>
<path d="M59.1306 25.8182C57.8332 25.8182 56.7534 26.4627 56.2679 27.5006H56.2177V25.927H53.807V38.1563H56.2512V33.5944H56.3014C56.8036 34.6407 57.8332 35.2517 59.1641 35.2517C61.4744 35.2517 62.9141 33.4604 62.9141 30.5308C62.9141 27.6011 61.466 25.8182 59.1306 25.8182ZM58.3187 33.2763C57.0715 33.2763 56.2428 32.1965 56.2428 30.5391C56.2428 28.8901 57.0715 27.7936 58.3187 27.7936C59.5826 27.7936 60.4113 28.8734 60.4113 30.5308C60.4113 32.2049 59.5826 33.2763 58.3187 33.2763Z" fill="white"/>
<path d="M69.5436 25.8182C68.2461 25.8182 67.1663 26.4627 66.6808 27.5006H66.6306V25.927H64.2199V38.1563H66.6641V33.5944H66.7143C67.2166 34.6407 68.2461 35.2517 69.577 35.2517C71.8873 35.2517 73.327 33.4604 73.327 30.5308C73.327 27.6011 71.8789 25.8182 69.5436 25.8182ZM68.7316 33.2763C67.4844 33.2763 66.6557 32.1965 66.6557 30.5391C66.6557 28.8901 67.4844 27.7936 68.7316 27.7936C69.9956 27.7936 70.8243 28.8734 70.8243 30.5308C70.8243 32.2049 69.9956 33.2763 68.7316 33.2763Z" fill="white"/>
<path d="M78.0397 31.7026C78.115 33.9711 79.9649 35.3522 82.8695 35.3522C85.8661 35.3522 87.7662 33.8706 87.7662 31.5269C87.7662 29.6853 86.7115 28.6474 84.2924 28.1284L82.8276 27.8187C81.4381 27.5006 80.8522 27.0821 80.8522 26.3371C80.8522 25.4415 81.6892 24.8472 82.9364 24.8472C84.2004 24.8472 85.096 25.4666 85.1797 26.4878H87.5486C87.5067 24.3031 85.7405 22.855 82.928 22.855C80.2327 22.855 78.3075 24.3282 78.3075 26.5548C78.3075 28.3209 79.4041 29.451 81.6306 29.9281L83.2043 30.2713C84.6608 30.5977 85.2383 31.033 85.2383 31.8198C85.2383 32.7071 84.3176 33.3516 82.9699 33.3516C81.6306 33.3516 80.5927 32.6987 80.4755 31.7026H78.0397Z" fill="white"/>
<path d="M89.8003 23.8762V25.927H88.553V27.7769H89.8003V32.6569C89.8003 34.4565 90.6373 35.1764 92.7718 35.1764C93.2657 35.1764 93.7009 35.1262 93.952 35.076V33.2679C93.8014 33.293 93.5586 33.3098 93.341 33.3098C92.596 33.3098 92.2445 32.9666 92.2445 32.2551V27.7769H93.952V25.927H92.2445V23.8762H89.8003Z" fill="white"/>
<path d="M99.4264 35.302C102.222 35.302 103.972 33.519 103.972 30.5308C103.972 27.576 102.205 25.7679 99.4264 25.7679C96.6557 25.7679 94.8812 27.5843 94.8812 30.5308C94.8812 33.5107 96.6306 35.302 99.4264 35.302ZM99.4264 33.4186C98.1373 33.4186 97.3589 32.3639 97.3589 30.5308C97.3589 28.7227 98.1373 27.6429 99.4264 27.6429C100.707 27.6429 101.486 28.7144 101.486 30.5308C101.486 32.3639 100.715 33.4186 99.4264 33.4186Z" fill="white"/>
<path d="M105.286 35.1429H107.73V29.9867C107.73 28.6976 108.458 27.9275 109.697 27.9275C110.057 27.9275 110.392 27.9861 110.601 28.0698V25.9102C110.425 25.8516 110.174 25.8182 109.89 25.8182C108.801 25.8182 108.006 26.4376 107.696 27.576H107.646V25.927H105.286V35.1429Z" fill="white"/>
<path d="M115.456 27.5927C116.586 27.5927 117.373 28.3795 117.415 29.5849H113.439C113.522 28.4046 114.343 27.5927 115.456 27.5927ZM117.448 32.3304C117.214 33.0419 116.486 33.4772 115.565 33.4772C114.276 33.4772 113.414 32.5815 113.414 31.2506V31.1H119.775V30.3466C119.775 27.5425 118.084 25.7679 115.431 25.7679C112.727 25.7679 111.003 27.6429 111.003 30.5726C111.003 33.5023 112.719 35.302 115.523 35.302C117.766 35.302 119.432 34.1134 119.7 32.3304H117.448Z" fill="white"/>
<path d="M30.1031 24.055C30.0701 20.3669 33.1153 18.5964 33.253 18.5101C31.5394 16.003 28.8726 15.6595 27.9212 15.6191C25.6529 15.3896 23.493 16.9544 22.3432 16.9544C21.1935 16.9544 19.4156 15.6522 17.5348 15.6889C15.059 15.7257 12.7797 17.127 11.505 19.3421C8.93553 23.7997 10.8493 30.4062 13.3509 34.0244C14.5759 35.7931 16.0342 37.7859 17.9517 37.7124C19.7994 37.639 20.4974 36.5186 22.7271 36.5186C24.9568 36.5186 25.5849 37.7124 27.5373 37.6775C29.5227 37.639 30.7827 35.8702 31.9986 34.096C33.4018 32.0426 33.9822 30.0554 34.0152 29.9507C33.9712 29.9323 30.1435 28.4648 30.1031 24.055Z" fill="white"/>
<path d="M26.4352 13.2256C27.4527 11.9932 28.1396 10.2796 27.9505 8.57153C26.4847 8.63037 24.7106 9.54866 23.6581 10.7811C22.7159 11.8703 21.8894 13.615 22.1134 15.2883C23.7481 15.415 25.4176 14.4562 26.4352 13.2256Z" fill="white"/>
</svg>
