<svg width="92" height="19" viewBox="0 0 92 19" fill="none" xmlns="http://www.w3.org/2000/svg">
<path d="M10.4004 15H13.5352L8.63281 0.908203H5.16602L0.273438 15H3.30078L4.375 11.582H9.32617L10.4004 15ZM6.81641 3.60352H6.88477L8.69141 9.375H5.00977L6.81641 3.60352ZM20.9863 4.12109C19.4727 4.12109 18.2129 4.87305 17.6465 6.08398H17.5879V4.24805H14.7754V18.5156H17.627V13.1934H17.6855C18.2715 14.4141 19.4727 15.127 21.0254 15.127C23.7207 15.127 25.4004 13.0371 25.4004 9.61914C25.4004 6.20117 23.7109 4.12109 20.9863 4.12109ZM20.0391 12.8223C18.584 12.8223 17.6172 11.5625 17.6172 9.62891C17.6172 7.70508 18.584 6.42578 20.0391 6.42578C21.5137 6.42578 22.4805 7.68555 22.4805 9.61914C22.4805 11.5723 21.5137 12.8223 20.0391 12.8223ZM33.1348 4.12109C31.6211 4.12109 30.3613 4.87305 29.7949 6.08398H29.7363V4.24805H26.9238V18.5156H29.7754V13.1934H29.834C30.4199 14.4141 31.6211 15.127 33.1738 15.127C35.8691 15.127 37.5488 13.0371 37.5488 9.61914C37.5488 6.20117 35.8594 4.12109 33.1348 4.12109ZM32.1875 12.8223C30.7324 12.8223 29.7656 11.5625 29.7656 9.62891C29.7656 7.70508 30.7324 6.42578 32.1875 6.42578C33.6621 6.42578 34.6289 7.68555 34.6289 9.61914C34.6289 11.5723 33.6621 12.8223 32.1875 12.8223ZM43.0469 10.9863C43.1348 13.6328 45.293 15.2441 48.6816 15.2441C52.1777 15.2441 54.3945 13.5156 54.3945 10.7812C54.3945 8.63281 53.1641 7.42188 50.3418 6.81641L48.6328 6.45508C47.0117 6.08398 46.3281 5.5957 46.3281 4.72656C46.3281 3.68164 47.3047 2.98828 48.7598 2.98828C50.2344 2.98828 51.2793 3.71094 51.377 4.90234H54.1406C54.0918 2.35352 52.0312 0.664062 48.75 0.664062C45.6055 0.664062 43.3594 2.38281 43.3594 4.98047C43.3594 7.04102 44.6387 8.35938 47.2363 8.91602L49.0723 9.31641C50.7715 9.69727 51.4453 10.2051 51.4453 11.123C51.4453 12.1582 50.3711 12.9102 48.7988 12.9102C47.2363 12.9102 46.0254 12.1484 45.8887 10.9863H43.0469ZM56.7676 1.85547V4.24805H55.3125V6.40625H56.7676V12.0996C56.7676 14.1992 57.7441 15.0391 60.2344 15.0391C60.8105 15.0391 61.3184 14.9805 61.6113 14.9219V12.8125C61.4355 12.8418 61.1523 12.8613 60.8984 12.8613C60.0293 12.8613 59.6191 12.4609 59.6191 11.6309V6.40625H61.6113V4.24805H59.6191V1.85547H56.7676ZM67.998 15.1855C71.2598 15.1855 73.3008 13.1055 73.3008 9.61914C73.3008 6.17188 71.2402 4.0625 67.998 4.0625C64.7656 4.0625 62.6953 6.18164 62.6953 9.61914C62.6953 13.0957 64.7363 15.1855 67.998 15.1855ZM67.998 12.9883C66.4941 12.9883 65.5859 11.7578 65.5859 9.61914C65.5859 7.50977 66.4941 6.25 67.998 6.25C69.4922 6.25 70.4004 7.5 70.4004 9.61914C70.4004 11.7578 69.502 12.9883 67.998 12.9883ZM74.834 15H77.6855V8.98438C77.6855 7.48047 78.5352 6.58203 79.9805 6.58203C80.4004 6.58203 80.791 6.65039 81.0352 6.74805V4.22852C80.8301 4.16016 80.5371 4.12109 80.2051 4.12109C78.9355 4.12109 78.0078 4.84375 77.6465 6.17188H77.5879V4.24805H74.834V15ZM86.6992 6.19141C88.0176 6.19141 88.9355 7.10938 88.9844 8.51562H84.3457C84.4434 7.13867 85.4004 6.19141 86.6992 6.19141ZM89.0234 11.7188C88.75 12.5488 87.9004 13.0566 86.8262 13.0566C85.3223 13.0566 84.3164 12.0117 84.3164 10.459V10.2832H91.7383V9.4043C91.7383 6.13281 89.7656 4.0625 86.6699 4.0625C83.5156 4.0625 81.5039 6.25 81.5039 9.66797C81.5039 13.0859 83.5059 15.1855 86.7773 15.1855C89.3945 15.1855 91.3379 13.7988 91.6504 11.7188H89.0234Z" fill="white"/>
</svg>
