<svg width="423" height="399" viewBox="0 0 423 399" fill="none" xmlns="http://www.w3.org/2000/svg">
<path d="M0.000120182 398.77L123.178 0H238.068C310.203 0 361.263 16.5407 391.247 49.6221C419.571 80.7106 428.346 125.55 417.572 184.14C404.379 255.882 371.68 310.287 319.475 347.354C270.62 381.632 208.706 398.77 133.734 398.77H0.000120182ZM226.769 87.8849H198.807L129.835 310.885H160.837C199.742 310.885 232.005 300.722 257.627 280.395C285.973 258.473 303.738 227.983 310.921 188.923C317.224 154.645 312.299 128.539 296.145 110.603C282.315 95.4577 259.19 87.8849 226.769 87.8849Z" fill="white"/>
</svg>
