<svg width="154" height="24" viewBox="0 0 154 24" fill="none" xmlns="http://www.w3.org/2000/svg">
<path d="M18.6174 24H34.6394L38.2857 18.4615H24.6052C23.4787 20.1706 22.0494 21.6758 20.2958 22.9366L20.2877 22.9425L20.2795 22.9483C19.7416 23.3305 19.1872 23.6807 18.6174 24Z" fill="white"/>
<path d="M26.4665 14.7692H33.7279L37.3741 9.23077H27.7225C27.6715 9.82287 27.5889 10.4293 27.4765 11.0484C27.2407 12.3465 26.9056 13.5897 26.4665 14.7692Z" fill="white"/>
<path d="M27.5838 5.53846H41.0204L44.6667 0H24.3731C24.7432 0.300154 25.0883 0.62758 25.4071 0.983467C26.5598 2.26545 27.2657 3.80336 27.5838 5.53846Z" fill="white"/>
<path d="M0 23.9262L7.29854 0H14.106C18.3801 0 21.4055 0.992441 23.1821 2.97732C24.8604 4.84264 25.3803 7.53299 24.7419 11.0484C23.9602 15.3529 22.0227 18.6172 18.9295 20.8413C16.0347 22.8979 12.3662 23.9262 7.92398 23.9262H0ZM13.4365 5.27309H11.7797L7.69299 18.6531H9.52991C11.8351 18.6531 13.7467 18.0433 15.2649 16.8237C16.9444 15.5084 17.997 13.679 18.4226 11.3354C18.7961 9.27873 18.5043 7.71235 17.5471 6.6362C16.7277 5.72746 15.3575 5.27309 13.4365 5.27309Z" fill="white"/>
<path d="M55.4205 19C59.8523 19 62.5369 16.2585 62.5369 11.7131C62.5369 7.18182 59.8523 4.45455 55.4631 4.45455H50.2642V19H55.4205ZM53.3395 16.3651V7.08949H55.2997C58.027 7.08949 59.4688 8.48153 59.4688 11.7131C59.4688 14.9588 58.027 16.3651 55.2926 16.3651H53.3395ZM64.7582 19H67.7837V12.8281C67.7837 11.4858 68.7638 10.5625 70.0991 10.5625C70.5181 10.5625 71.0934 10.6335 71.3775 10.7259V8.04119C71.1076 7.97727 70.7312 7.93466 70.4258 7.93466C69.2042 7.93466 68.2028 8.64489 67.805 9.99432H67.6914V8.09091H64.7582V19ZM72.9418 19H75.9673V8.09091H72.9418V19ZM74.4616 6.68466C75.3636 6.68466 76.1023 5.99574 76.1023 5.15057C76.1023 4.3125 75.3636 3.62358 74.4616 3.62358C73.5668 3.62358 72.8281 4.3125 72.8281 5.15057C72.8281 5.99574 73.5668 6.68466 74.4616 6.68466ZM88.5614 8.09091H85.3583L83.0998 15.8963H82.9862L80.7205 8.09091H77.5245L81.3384 19H84.7475L88.5614 8.09091ZM90.1665 19H99.9961V16.4645H93.2418V12.9915H99.4634V10.456H93.2418V6.99006H99.9677V4.45455H90.1665V19ZM104.884 8.09091H101.759L104.884 13.5455L101.646 19H104.771L106.887 15.2287L109.039 19H112.129L108.883 13.5455L112.043 8.09091H108.94L106.887 11.9048L104.884 8.09091ZM113.84 23.0909H116.866V17.2528H116.958C117.377 18.1619 118.293 19.1776 120.055 19.1776C122.54 19.1776 124.479 17.2102 124.479 13.5597C124.479 9.80966 122.455 7.94886 120.062 7.94886C118.237 7.94886 117.363 9.03551 116.958 9.9233H116.823V8.09091H113.84V23.0909ZM116.802 13.5455C116.802 11.5994 117.626 10.3565 119.096 10.3565C120.594 10.3565 121.39 11.6562 121.39 13.5455C121.39 15.4489 120.58 16.7699 119.096 16.7699C117.64 16.7699 116.802 15.4915 116.802 13.5455ZM131.468 19.2131C134.167 19.2131 135.985 17.8991 136.411 15.875L133.613 15.6903C133.308 16.5213 132.526 16.9545 131.518 16.9545C130.005 16.9545 129.046 15.9531 129.046 14.3267V14.3196H136.475V13.4886C136.475 9.78125 134.231 7.94886 131.347 7.94886C128.137 7.94886 126.056 10.2287 126.056 13.5952C126.056 17.054 128.109 19.2131 131.468 19.2131ZM129.046 12.4446C129.11 11.2017 130.055 10.2074 131.397 10.2074C132.711 10.2074 133.62 11.1449 133.627 12.4446H129.046ZM138.45 19H141.475V12.8281C141.475 11.4858 142.455 10.5625 143.79 10.5625C144.21 10.5625 144.785 10.6335 145.069 10.7259V8.04119C144.799 7.97727 144.423 7.93466 144.117 7.93466C142.896 7.93466 141.894 8.64489 141.496 9.99432H141.383V8.09091H138.45V19ZM152.983 8.09091H150.93V5.47727H147.904V8.09091H146.413V10.3636H147.904V16.0455C147.89 18.1832 149.346 19.2415 151.541 19.1491C152.322 19.1207 152.876 18.9645 153.181 18.8651L152.706 16.6136C152.556 16.642 152.237 16.7131 151.953 16.7131C151.349 16.7131 150.93 16.4858 150.93 15.6477V10.3636H152.983V8.09091Z" fill="white"/>
</svg>
