<svg width="45" height="24" viewBox="0 0 45 24" fill="none" xmlns="http://www.w3.org/2000/svg">
<path d="M18.6174 24H34.6394L38.2857 18.4615H24.6052C23.4787 20.1706 22.0494 21.6758 20.2958 22.9366L20.2877 22.9425L20.2795 22.9483C19.7416 23.3305 19.1872 23.6807 18.6174 24Z" fill="white"/>
<path d="M26.4665 14.7692H33.7279L37.3741 9.23077H27.7225C27.6715 9.82287 27.5889 10.4293 27.4765 11.0484C27.2407 12.3465 26.9056 13.5897 26.4665 14.7692Z" fill="white"/>
<path d="M27.5838 5.53846H41.0204L44.6667 0H24.3731C24.7432 0.300154 25.0883 0.62758 25.4071 0.983467C26.5598 2.26545 27.2657 3.80336 27.5838 5.53846Z" fill="white"/>
<path d="M0 23.9262L7.29854 0H14.106C18.3801 0 21.4055 0.992441 23.1821 2.97732C24.8604 4.84264 25.3803 7.53299 24.7419 11.0484C23.9602 15.3529 22.0227 18.6172 18.9295 20.8413C16.0347 22.8979 12.3662 23.9262 7.92398 23.9262H0ZM13.4365 5.27309H11.7797L7.69299 18.6531H9.52991C11.8351 18.6531 13.7467 18.0433 15.2649 16.8237C16.9444 15.5084 17.997 13.679 18.4226 11.3354C18.7961 9.27873 18.5043 7.71235 17.5471 6.6362C16.7277 5.72746 15.3575 5.27309 13.4365 5.27309Z" fill="white"/>
</svg>
