<svg width="49" height="26" viewBox="0 0 49 26" fill="none" xmlns="http://www.w3.org/2000/svg">
<path d="M20.6062 25.6695H37.8239L41.7423 19.7919H27.0408C25.8302 21.6056 24.2943 23.203 22.4099 24.5409L22.4012 24.5471L22.3924 24.5533C21.8142 24.9589 21.2185 25.3306 20.6062 25.6695Z" fill="#E61830"/>
<path d="M29.041 15.8735H36.8443L40.7627 9.99595H30.3908C30.3359 10.6243 30.2472 11.2678 30.1264 11.9248C29.8731 13.3024 29.513 14.6218 29.041 15.8735Z" fill="#E61830"/>
<path d="M30.2418 6.07757H44.6811L48.5995 0.200003L26.7915 0.200003C27.1891 0.518526 27.56 0.86599 27.9025 1.24366C29.1413 2.60414 29.8999 4.23622 30.2418 6.07757Z" fill="#E61830"/>
<path d="M0.599609 25.5912L8.44281 0.200003H15.7583C20.3514 0.200003 23.6025 1.25321 25.5117 3.35962C27.3152 5.33914 27.874 8.19422 27.1879 11.9249C26.3479 16.493 24.2658 19.9571 20.9417 22.3173C17.8309 24.4999 13.8887 25.5912 9.11493 25.5912H0.599609ZM15.0388 5.79595H13.2584L8.8667 19.9952H10.8407C13.3179 19.9952 15.3722 19.3481 17.0036 18.0538C18.8086 16.6579 19.9397 14.7165 20.3971 12.2294C20.7984 10.0468 20.4848 8.38456 19.4562 7.24253C18.5756 6.27815 17.1032 5.79595 15.0388 5.79595Z" fill="#E61830"/>
</svg>
