<svg width="440" height="400" viewBox="0 0 440 400" fill="none" xmlns="http://www.w3.org/2000/svg">
<path fill-rule="evenodd" clip-rule="evenodd" d="M0.208496 400H270.613L332.152 307.692H101.265C82.2517 336.176 58.1297 361.264 28.535 382.277L28.3976 382.374L28.2596 382.471C19.1803 388.841 9.82493 394.678 0.208496 400ZM132.678 246.154H255.228L316.767 153.846H153.876C153.014 163.715 151.621 173.821 149.723 184.139C145.745 205.775 140.089 226.495 132.678 246.154ZM151.535 92.3077H378.305L439.844 0H97.3473C103.593 5.00256 109.418 10.4597 114.797 16.3911C134.252 37.7575 146.166 63.3894 151.535 92.3077Z" fill="white"/>
</svg>
