<svg width="100" height="20" viewBox="0 0 100 20" fill="none" xmlns="http://www.w3.org/2000/svg">
<path d="M31.9149 5.56213C29.078 5.56213 26.8322 7.69231 26.8322 10.6509C26.8322 13.4911 29.078 15.7396 31.9149 15.7396C34.7518 15.7396 36.9976 13.6095 36.9976 10.6509C36.9976 7.57397 34.7518 5.56213 31.9149 5.56213ZM31.9149 13.6095C30.3783 13.6095 29.078 12.3077 29.078 10.5325C29.078 8.7574 30.3783 7.45562 31.9149 7.45562C33.4515 7.45562 34.7518 8.63905 34.7518 10.5325C34.7518 12.3077 33.4515 13.6095 31.9149 13.6095ZM20.922 5.56213C18.0851 5.56213 15.8392 7.69231 15.8392 10.6509C15.8392 13.4911 18.0851 15.7396 20.922 15.7396C23.7589 15.7396 26.0047 13.6095 26.0047 10.6509C26.0047 7.57397 23.7589 5.56213 20.922 5.56213ZM20.922 13.6095C19.3853 13.6095 18.0851 12.3077 18.0851 10.5325C18.0851 8.7574 19.3853 7.45562 20.922 7.45562C22.4586 7.45562 23.7589 8.63905 23.7589 10.5325C23.7589 12.3077 22.4586 13.6095 20.922 13.6095ZM7.80142 7.10059V9.23077H12.8842C12.766 10.4142 12.2931 11.3609 11.7021 11.9527C10.9929 12.6627 9.81088 13.4911 7.80142 13.4911C4.60993 13.4911 2.24586 11.0059 2.24586 7.81065C2.24586 4.61539 4.72814 2.13018 7.80142 2.13018C9.45627 2.13018 10.7565 2.84024 11.7021 3.66864L13.2388 2.13018C11.9385 0.946745 10.2837 0 7.91962 0C3.6643 0 0 3.5503 0 7.81065C0 12.071 3.6643 15.6213 7.91962 15.6213C10.2837 15.6213 11.9385 14.9112 13.357 13.3728C14.7754 11.9527 15.2482 9.94083 15.2482 8.40237C15.2482 7.929 15.2482 7.45562 15.13 7.10059H7.80142ZM61.4657 8.7574C60.9929 7.57397 59.8109 5.56213 57.2104 5.56213C54.6099 5.56213 52.4823 7.57397 52.4823 10.6509C52.4823 13.4911 54.6099 15.7396 57.4468 15.7396C59.6927 15.7396 61.1111 14.3195 61.5839 13.4911L59.9291 12.3077C59.3381 13.1361 58.6288 13.7278 57.4468 13.7278C56.2648 13.7278 55.5556 13.2544 54.9645 12.1894L61.7021 9.34911L61.4657 8.7574ZM54.6099 10.4142C54.6099 8.52071 56.1466 7.45562 57.2104 7.45562C58.0378 7.45562 58.8652 7.92899 59.1017 8.52071L54.6099 10.4142ZM49.0544 15.2663H51.3002V0.473372H49.0544V15.2663ZM45.5083 6.62722C44.9173 6.0355 43.9716 5.44379 42.7896 5.44379C40.3073 5.44379 37.9433 7.69231 37.9433 10.5325C37.9433 13.3728 40.1891 15.503 42.7896 15.503C43.9716 15.503 44.9173 14.9112 45.3901 14.3195H45.5083V15.0296C45.5083 16.9231 44.4445 17.9882 42.7896 17.9882C41.4894 17.9882 40.5437 17.0414 40.3073 16.213L38.4161 17.0414C39.0071 18.3432 40.4255 20 42.9078 20C45.5083 20 47.6359 18.4615 47.6359 14.7929V5.79882H45.5083V6.62722ZM42.9078 13.6095C41.3712 13.6095 40.0709 12.3077 40.0709 10.5325C40.0709 8.7574 41.3712 7.45562 42.9078 7.45562C44.4444 7.45562 45.6265 8.7574 45.6265 10.5325C45.6265 12.3077 44.4444 13.6095 42.9078 13.6095ZM71.7494 0.473372H66.4303V15.2663H68.6761V9.70414H71.7494C74.2317 9.70414 76.5957 7.929 76.5957 5.08876C76.5957 2.24852 74.2317 0.473372 71.7494 0.473372ZM71.8676 7.57397H68.6761V2.48521H71.8676C73.5225 2.48521 74.4681 3.90532 74.4681 4.97041C74.3499 6.27219 73.4043 7.57397 71.8676 7.57397ZM85.461 5.44379C83.8061 5.44379 82.1513 6.15385 81.5603 7.69231L83.5697 8.52071C84.0426 7.69231 84.7518 7.45562 85.5792 7.45562C86.7612 7.45562 87.8251 8.16568 87.9433 9.34911V9.46746C87.5887 9.23077 86.643 8.87574 85.6974 8.87574C83.5697 8.87574 81.4421 10.0592 81.4421 12.1894C81.4421 14.2012 83.2151 15.503 85.1064 15.503C86.643 15.503 87.3522 14.7929 87.9433 14.0828H88.0615V15.2663H90.1891V9.5858C89.9527 6.98225 87.9433 5.44379 85.461 5.44379ZM85.2246 13.6095C84.5154 13.6095 83.4515 13.2544 83.4515 12.3077C83.4515 11.1243 84.7518 10.7692 85.8156 10.7692C86.7612 10.7692 87.234 11.0059 87.8251 11.2426C87.5887 12.6627 86.4066 13.6095 85.2246 13.6095ZM97.6359 5.79882L95.1537 12.1894H95.0355L92.435 5.79882H90.0709L93.9716 14.7929L91.7258 19.7633H93.9716L100 5.79882H97.6359ZM77.7778 15.2663H80.0236V0.473372H77.7778V15.2663Z" fill="white"/>
</svg>
