<svg width="115" height="40" viewBox="0 0 115 40" fill="none" xmlns="http://www.w3.org/2000/svg">
<rect width="114.286" height="40" rx="4" fill="#121213"/>
<path d="M9.69395 7.85718L21.1347 19.2155L24.2717 16.0785L10.404 8.07167C10.1887 7.94255 9.94472 7.86885 9.69395 7.85718ZM8.73615 8.38547C8.62645 8.58227 8.56965 8.80416 8.57132 9.02946V31.1022C8.57132 31.2797 8.60831 31.4387 8.67064 31.5808L20.3755 19.9583L8.73615 8.38547ZM25.2295 16.6237L21.878 19.9583L25.229 23.277L29.3233 20.9325C29.9055 20.596 29.9879 20.1691 29.9836 19.9419C29.9778 19.5668 29.7406 19.2155 29.3402 19.001C28.9915 18.813 26.4013 17.3047 25.229 16.6237H25.2295ZM21.1352 20.7011L9.5941 32.1429C9.80261 32.1363 10.0065 32.0796 10.1884 31.9775L19.7807 26.4304L24.2876 23.8386L21.1352 20.7011Z" fill="white"/>
<path d="M40.0655 12.4002C40.0655 11.6459 39.6798 11.1231 38.9084 10.8231V10.8145C39.5855 10.4888 39.9198 9.97451 39.9198 9.28022C39.9198 8.77451 39.7141 8.34594 39.3112 8.00308C38.9084 7.65165 38.3512 7.48022 37.6569 7.48022C36.4998 7.48022 35.7027 8.10594 35.3941 8.99737L36.3112 9.41737C36.5855 8.76594 37.0312 8.44022 37.6398 8.44022C38.4198 8.44022 38.8484 8.83451 38.8484 9.39165C38.8484 9.66594 38.7369 9.90594 38.5055 10.1031C38.2827 10.3002 37.9912 10.3945 37.6398 10.3945H36.8084V11.3459H37.6998C38.0769 11.3459 38.3855 11.4488 38.6169 11.6545C38.8569 11.8517 38.9769 12.1002 38.9769 12.3831C38.9769 12.6574 38.8569 12.8974 38.6084 13.1031C38.3598 13.3002 38.0512 13.4031 37.6827 13.4031C36.9969 13.4031 36.5084 13.0688 36.2084 12.4002L35.2998 12.8459C35.7027 13.8574 36.4912 14.3631 37.6655 14.3631C38.3598 14.3631 38.9255 14.1745 39.3798 13.7974C39.8341 13.4202 40.0655 12.9574 40.0655 12.4002Z" fill="white"/>
<path d="M43.3874 11.1831C43.3874 11.4402 43.2417 11.5688 42.9588 11.5688H42.3931C41.5874 11.5688 40.4903 11.9031 40.4903 12.9659V13.0174C40.4903 13.4117 40.636 13.7374 40.9274 13.9859C41.2188 14.2345 41.5874 14.3631 42.0331 14.3631C42.6503 14.3631 43.096 14.1317 43.3788 13.6602V14.2859H44.3817V11.3717C44.3817 11.0545 44.3303 10.7802 44.2274 10.5488C43.9446 9.92308 43.3703 9.61451 42.5131 9.61451C41.5788 9.61451 40.9274 10.0002 40.5674 10.7802L41.3474 11.2259C41.5788 10.7374 41.9646 10.4974 42.4874 10.4974C43.0617 10.4974 43.3874 10.8059 43.3874 11.1831ZM43.3788 12.4345C43.3788 13.1202 42.9331 13.5488 42.2388 13.5488C41.8017 13.5488 41.5103 13.3002 41.5103 12.9231C41.5103 12.7259 41.6046 12.5717 41.7846 12.4602C41.9731 12.3488 42.1788 12.2888 42.3931 12.2888H43.3788V12.4345Z" fill="white"/>
<path d="M48.4891 9.7088H45.2748V14.2859H46.2948V10.6259H48.4891V9.7088Z" fill="white"/>
<path d="M53.6886 11.9802C53.6886 11.3717 53.4829 10.8231 53.0629 10.3431C52.6515 9.86308 52.1115 9.62308 51.4429 9.62308C51.1857 9.62308 50.9115 9.68308 50.6115 9.81165C50.3115 9.94022 50.08 10.1374 49.9086 10.4202V9.7088H48.9143V16.5402H49.9343V13.6174C50.0972 13.8659 50.32 14.0459 50.62 14.1745C50.92 14.2945 51.1857 14.3545 51.4172 14.3545C52.0772 14.3545 52.6172 14.1231 53.0457 13.6517C53.4743 13.1802 53.6886 12.6231 53.6886 11.9802ZM50.2943 10.9602C50.5515 10.6774 50.8857 10.5402 51.2886 10.5402C51.6915 10.5402 52.0257 10.6774 52.2743 10.9602C52.5315 11.2431 52.66 11.5859 52.66 11.9888C52.66 12.3917 52.5315 12.7345 52.2743 13.0174C52.0257 13.2917 51.6915 13.4288 51.2886 13.4288C50.8857 13.4288 50.5515 13.2917 50.2943 13.0174C50.0457 12.7345 49.9172 12.3917 49.9172 11.9888C49.9172 11.5859 50.0457 11.2431 50.2943 10.9602Z" fill="white"/>
<path d="M54.9371 9.7088H53.7714L55.8114 13.7717L54.5514 16.5402H55.64L58.7857 9.7088H57.68L56.36 12.7088L54.9371 9.7088Z" fill="white"/>
<path d="M60.6569 14.3802C61.7283 14.3802 62.4398 13.8488 62.4398 12.9831C62.4398 12.4688 62.1826 12.1088 61.6598 11.9031V11.8945C62.1055 11.7145 62.354 11.3459 62.354 10.9259C62.354 10.1459 61.694 9.61451 60.6569 9.61451C59.7998 9.61451 59.0969 10.0345 58.7455 10.7974L59.5426 11.2259C59.774 10.7374 60.1255 10.4974 60.614 10.4974C61.0598 10.4974 61.3255 10.7288 61.3255 11.0288C61.3255 11.3717 61.0769 11.5859 60.6312 11.5859H60.0483V12.3574H60.6398C61.1455 12.3574 61.4026 12.5459 61.4026 12.9231C61.4026 13.2402 61.0855 13.4888 60.6312 13.4888C60.1083 13.4888 59.7398 13.2488 59.5255 12.7774L58.7112 13.2145C59.054 13.9774 59.7655 14.3802 60.6569 14.3802Z" fill="white"/>
<path d="M63.1057 14.2859H64.0914L66.26 11.2345V14.2859H67.2543V9.7088H66.2686L64.1 12.7688V9.7088H63.1057V14.2859Z" fill="white"/>
<path d="M67.6876 10.6259H69.1705V14.2859H70.199V10.6259H71.6905V9.7088H67.6876V10.6259Z" fill="white"/>
<path d="M76.2256 12.2974C76.2341 12.2202 76.2427 12.1174 76.2427 11.9802C76.2427 11.2688 76.0456 10.7031 75.6513 10.2659C75.257 9.8288 74.7084 9.61451 74.0141 9.61451C73.3541 9.61451 72.8056 9.84594 72.3684 10.3088C71.9313 10.7717 71.7084 11.3288 71.7084 11.9888C71.7084 12.6659 71.9398 13.2402 72.3941 13.6945C72.857 14.1488 73.4313 14.3717 74.1084 14.3717C74.9313 14.3717 75.677 13.9774 76.0627 13.2659L75.3256 12.7774C75.077 13.2488 74.6656 13.4888 74.0913 13.4888C73.7398 13.4888 73.4313 13.3774 73.1656 13.1545C72.8998 12.9231 72.7627 12.6402 72.7541 12.2974H76.2256ZM74.0141 10.4888C74.6656 10.4888 75.1713 10.8831 75.2056 11.5259H72.8056C72.8999 10.9002 73.3884 10.4888 74.0141 10.4888Z" fill="white"/>
<path d="M78.6933 14.2859H81.1619C81.6248 14.2859 82.019 14.1831 82.3448 13.9859C82.6705 13.7802 82.8333 13.4631 82.8333 13.0431C82.8333 12.7431 82.739 12.4945 82.559 12.2802C82.3791 12.0659 82.1562 11.9374 81.9076 11.8945C82.3962 11.6802 82.6448 11.3288 82.6448 10.8574C82.6448 10.1288 82.0105 9.7088 81.119 9.7088H78.6933V14.2859ZM79.6962 10.5317H80.9219C81.7876 10.4631 81.839 11.6031 80.8962 11.5859H79.6962V10.5317ZM79.6962 12.3231H80.9733C81.4448 12.3231 81.7876 12.5117 81.7876 12.8631C81.7876 13.2402 81.4876 13.4459 81.0162 13.4459H79.6962V12.3231Z" fill="white"/>
<path d="M57.7964 21.8301C55.77 21.8301 54.1658 23.3517 54.1658 25.465C54.1658 27.4937 55.77 29.0998 57.7964 29.0998C59.8227 29.0998 61.4269 27.5782 61.4269 25.465C61.4269 23.2672 59.8227 21.8301 57.7964 21.8301ZM57.7964 27.5782C56.6988 27.5782 55.77 26.6484 55.77 25.3804C55.77 24.1125 56.6988 23.1826 57.7964 23.1826C58.894 23.1826 59.8227 24.0279 59.8227 25.3804C59.8227 26.6484 58.894 27.5782 57.7964 27.5782ZM49.9443 21.8301C47.9179 21.8301 46.3137 23.3517 46.3137 25.465C46.3137 27.4937 47.9179 29.0998 49.9443 29.0998C51.9706 29.0998 53.5748 27.5782 53.5748 25.465C53.5748 23.2672 51.9706 21.8301 49.9443 21.8301ZM49.9443 27.5782C48.8467 27.5782 47.9179 26.6484 47.9179 25.3804C47.9179 24.1125 48.8467 23.1826 49.9443 23.1826C51.0419 23.1826 51.9706 24.0279 51.9706 25.3804C51.9706 26.6484 51.0419 27.5782 49.9443 27.5782ZM40.5724 22.929V24.4506H44.203C44.1185 25.2959 43.7808 25.9721 43.3587 26.3948C42.8521 26.902 42.0078 27.4937 40.5724 27.4937C38.2928 27.4937 36.6042 25.7185 36.6042 23.4362C36.6042 21.1539 38.3772 19.3787 40.5724 19.3787C41.7545 19.3787 42.6832 19.8859 43.3587 20.4776L44.4563 19.3787C43.5275 18.5334 42.3455 17.8572 40.6569 17.8572C37.6174 17.8572 35 20.3931 35 23.4362C35 26.4793 37.6174 29.0153 40.6569 29.0153C42.3455 29.0153 43.5275 28.5081 44.5407 27.4092C45.5539 26.3948 45.8916 24.9578 45.8916 23.8589C45.8916 23.5207 45.8916 23.1826 45.8072 22.929H40.5724ZM78.9041 24.1125C78.5664 23.2672 77.7221 21.8301 75.8646 21.8301C74.0071 21.8301 72.4873 23.2672 72.4873 25.465C72.4873 27.4937 74.0071 29.0998 76.0334 29.0998C77.6376 29.0998 78.6508 28.0854 78.9885 27.4937L77.8065 26.6484C77.3843 27.2401 76.8777 27.6628 76.0334 27.6628C75.1891 27.6628 74.6825 27.3246 74.2604 26.5639L79.073 24.5351L78.9041 24.1125ZM74.0071 25.2959C74.0071 23.9434 75.1047 23.1826 75.8646 23.1826C76.4556 23.1826 77.0466 23.5207 77.2155 23.9434L74.0071 25.2959ZM70.0388 28.7617H71.643V18.1953H70.0388V28.7617ZM67.5059 22.5909C67.0838 22.1683 66.4083 21.7456 65.564 21.7456C63.791 21.7456 62.1023 23.3517 62.1023 25.3804C62.1023 27.4092 63.7065 28.9307 65.564 28.9307C66.4083 28.9307 67.0838 28.5081 67.4215 28.0854H67.5059V28.5926C67.5059 29.9451 66.746 30.7059 65.564 30.7059C64.6353 30.7059 63.9598 30.0296 63.7909 29.4379L62.4401 30.0296C62.8622 30.9595 63.8754 32.1429 65.6484 32.1429C67.5059 32.1429 69.0257 31.044 69.0257 28.4235V21.9992H67.5059V22.5909ZM65.6484 27.5782C64.5508 27.5782 63.6221 26.6484 63.6221 25.3804C63.6221 24.1125 64.5508 23.1826 65.6484 23.1826C66.746 23.1826 67.5903 24.1125 67.5903 25.3804C67.5903 26.6484 66.746 27.5782 65.6484 27.5782ZM86.2496 18.1953H82.4502V28.7617H84.0544V24.7887H86.2496C88.0226 24.7887 89.7113 23.5207 89.7113 21.492C89.7113 19.4633 88.0226 18.1953 86.2496 18.1953ZM86.334 23.2672H84.0544V19.6323H86.334C87.516 19.6323 88.1915 20.6467 88.1915 21.4075C88.1071 22.3373 87.4316 23.2672 86.334 23.2672ZM96.0436 21.7456C94.8615 21.7456 93.6795 22.2528 93.2573 23.3517L94.6927 23.9434C95.0304 23.3517 95.537 23.1826 96.128 23.1826C96.9723 23.1826 97.7322 23.6898 97.8166 24.5351V24.6196C97.5633 24.4506 96.8879 24.197 96.2124 24.197C94.6927 24.197 93.1729 25.0423 93.1729 26.5639C93.1729 28.0009 94.4394 28.9307 95.7903 28.9307C96.8879 28.9307 97.3945 28.4235 97.8166 27.9164H97.9011V28.7617H99.4208V24.7042C99.2519 22.8445 97.8166 21.7456 96.0436 21.7456ZM95.8747 27.5782C95.3681 27.5782 94.6082 27.3246 94.6082 26.6484C94.6082 25.8031 95.537 25.5495 96.2969 25.5495C96.9723 25.5495 97.31 25.7185 97.7322 25.8876C97.5633 26.902 96.719 27.5782 95.8747 27.5782ZM104.74 21.9992L102.967 26.5639H102.882L101.025 21.9992H99.3364L102.123 28.4235L100.518 31.9738H102.123L106.429 21.9992H104.74ZM90.5556 28.7617H92.1597V18.1953H90.5556V28.7617Z" fill="white"/>
</svg>
